PathFileType	4	(X/Y/Z)	Run_300 02
DataRate	CameraRate	NumFrames	NumMarkers	Units	OrigDataRate	OrigDataStartFrame	OrigNumFrames
120	120	4	42	mm	120	27	128
Frame#	Time	LASI			RASI			LPSI			RPSI			RTH1			RTH2			RTH3			LTH1			LTH2			LTH3			RTB1			RTB2			LTB1			LTB2			LTB3			RCAL			RTOE			RMT5			LCAL			LTOE			LMT5			LACR			RACR			CLAV			C7			RUA1			RUA2			RUA3			RLEL			RMEL			LUA1			LUA2			LUA3			LLEL			LMEL			RFAsuperior			RFAradius			RFAulna			LFAsuperior			LFAradius			LFAulna			RTB3		
		X1	Y1	Z1	X2	Y2	Z2	X3	Y3	Z3	X4	Y4	Z4	X5	Y5	Z5	X6	Y6	Z6	X7	Y7	Z7	X8	Y8	Z8	X9	Y9	Z9	X10	Y10	Z10	X11	Y11	Z11	X12	Y12	Z12	X13	Y13	Z13	X14	Y14	Z14	X15	Y15	Z15	X16	Y16	Z16	X17	Y17	Z17	X18	Y18	Z18	X19	Y19	Z19	X20	Y20	Z20	X21	Y21	Z21	X22	Y22	Z22	X23	Y23	Z23	X24	Y24	Z24	X25	Y25	Z25	X26	Y26	Z26	X27	Y27	Z27	X28	Y28	Z28	X29	Y29	Z29	X30	Y30	Z30	X31	Y31	Z31	X32	Y32	Z32	X33	Y33	Z33	X34	Y34	Z34	X35	Y35	Z35	X36	Y36	Z36	X37	Y37	Z37	X38	Y38	Z38	X39	Y39	Z39	X40	Y40	Z40	X41	Y41	Z41	X42	Y42	Z42	

27	  0.225000	863.244319	1051.009356	-475.387177	873.097355	1049.212575	-214.385285	687.560587	1091.300767	-374.410206	689.032381	1081.946889	-293.086164	857.760473	884.728981	-167.928633	964.089737	821.098698	-179.804506	955.792689	694.582859	-202.657678	780.204537	842.037368	-521.139129	824.406372	713.549249	-504.455822	744.570374	607.626047	-478.861190	1007.535144	463.688634	-294.946382	944.240154	430.860138	-226.618954	723.920732	372.151380	-405.157230	651.685832	310.425703	-451.701227	599.714307	214.235122	-380.126207	690.742833	315.573915	-311.248871	854.882817	149.629489	-310.976588	782.753224	175.340850	-225.340428	422.870531	141.586431	-366.494812	644.798558	 70.331112	-339.691745	570.218417	 54.460690	-430.062991	931.869115	1502.719576	-529.338986	861.387858	1530.145691	-189.666951	936.480277	1463.120792	-311.935286	822.890199	1555.567220	-373.402766	793.444777	1454.096919	-112.146312	752.045904	1372.742056	-116.850950	683.214542	1408.682850	-97.449147	590.982465	1304.680599	-60.815887	570.377305	1307.660986	-141.949047	923.167250	1402.577125	-597.432479	932.099234	1330.293722	-578.888756	839.605152	1311.325631	-603.453937	854.829392	1147.699320	-640.930501	796.492509	1139.016399	-574.232477	671.359342	1231.031463	-62.341584	791.316725	1132.496804	-151.662136	760.293053	1096.281076	-96.580795	943.407480	1164.157236	-598.470532	1049.051447	1217.029209	-461.845326	1072.039209	1152.108908	-483.511334	882.074765	354.297380	-296.715722	
28	  0.233333	866.157808	1054.578304	-475.423937	873.769287	1055.183919	-214.534754	690.021106	1096.214731	-375.237324	690.237437	1087.874468	-293.483303	859.528549	892.039333	-166.419457	966.099241	828.580241	-178.471254	958.748824	701.805203	-201.943392	776.665303	846.480860	-520.201538	815.863513	716.879899	-503.018546	730.987307	613.893794	-478.540586	1020.489916	467.068784	-294.765322	959.578480	429.037376	-227.171765	703.890414	378.016393	-406.332444	631.040572	316.991783	-452.565308	579.219938	220.429889	-381.412734	716.439193	295.879449	-314.914733	892.105832	142.492714	-314.140798	817.665644	162.439672	-229.039155	403.070194	151.173814	-367.960113	621.140209	 69.785494	-339.738557	546.210877	 55.559889	-428.916467	934.287775	1509.508029	-527.174027	859.440540	1536.448916	-189.499141	936.498032	1469.957153	-309.744119	823.416936	1561.073297	-373.210255	789.689780	1463.377825	-112.795807	747.456304	1382.309839	-117.381415	678.689521	1419.468027	-100.756745	583.263689	1317.558226	-65.562283	565.069927	1320.801571	-147.423621	926.083717	1410.002586	-595.885171	934.419846	1337.555562	-577.944899	841.775969	1319.180392	-603.129572	857.020635	1155.175860	-640.269920	797.843745	1146.702092	-573.707887	662.216849	1242.605962	-65.085516	783.085547	1141.986209	-151.495646	750.039231	1106.310115	-97.256871	945.258633	1172.690925	-597.385581	1048.439899	1228.393691	-460.099538	1072.418915	1163.236813	-480.626776	903.835756	348.539551	-298.335209	
29	  0.241667	869.180086	1058.131274	-475.142942	874.756468	1061.274392	-214.488068	692.759245	1101.178142	-376.082781	691.877361	1093.803780	-293.896648	861.141262	899.274980	-164.980638	967.794094	835.611453	-177.103436	961.085777	708.585435	-201.557820	773.309040	851.043586	-519.273620	807.401046	720.515251	-501.853955	717.816756	620.532939	-478.540823	1032.879557	470.108147	-294.537348	974.544158	427.022874	-227.687513	684.407979	384.331652	-407.834187	610.836219	324.163335	-453.825801	559.326591	227.063884	-382.942861	742.895745	276.380602	-318.406672	929.363349	135.877559	-317.561381	853.014176	149.837577	-232.871129	384.033113	161.283015	-369.350590	597.708578	 69.351923	-339.965721	522.413544	 57.022969	-428.019521	936.628280	1516.279623	-525.088121	857.698960	1542.736233	-189.341917	936.401544	1476.671307	-307.864339	823.951066	1566.569520	-372.958569	786.240162	1472.351986	-113.562954	743.016810	1391.771276	-118.286768	674.327897	1430.211751	-104.545983	576.014839	1330.235488	-70.435077	560.210514	1333.522953	-152.908154	929.190790	1417.271373	-594.181710	936.790811	1344.770608	-576.848646	844.056113	1327.108456	-602.774759	858.994601	1162.689079	-639.712637	799.102230	1154.433520	-573.316174	653.555591	1254.013778	-67.967393	775.354926	1151.353292	-151.285357	740.246801	1116.147829	-98.062609	946.877344	1181.139556	-596.349455	1047.676767	1239.375302	-458.363815	1072.628690	1174.058342	-477.905689	925.554493	342.739339	-299.767540	
30	  0.250000	872.392851	1061.637917	-474.431223	876.185061	1067.535095	-214.163909	695.848863	1106.224293	-376.938040	694.143946	1099.766708	-294.311112	862.509704	906.308590	-163.659310	968.969782	841.841151	-175.672464	962.401252	714.561719	-201.654146	770.244106	855.825079	-518.422679	799.113735	724.676636	-501.129964	705.327852	627.779766	-478.986756	1044.339069	472.553248	-294.265875	988.892837	424.677630	-228.113930	665.896846	391.371958	-409.794836	591.443764	332.281811	-455.654735	540.548434	234.348383	-384.907225	770.543416	257.271254	-321.577479	966.638675	130.168866	-321.372406	889.054131	137.789783	-236.884488	366.387861	172.194437	-370.652423	574.651655	 69.034116	-340.432421	499.051191	 59.104966	-427.653025	938.832427	1522.976509	-523.108008	856.283436	1548.974263	-189.147505	936.187813	1483.176510	-306.377401	824.507769	1572.003056	-372.622844	783.229200	1480.837374	-114.475845	738.847576	1401.017456	-119.646480	670.268911	1440.815230	-108.985929	569.518985	1342.508495	-75.481638	556.048575	1345.511413	-158.396583	932.517493	1424.282198	-592.267155	939.210537	1351.875089	-575.523939	846.494628	1335.079147	-602.366421	860.614838	1170.211785	-639.281464	800.164940	1162.205206	-573.115518	645.683286	1265.098741	-71.041891	768.435393	1160.472013	-151.033239	731.237974	1125.643408	-99.055566	948.124775	1189.418986	-595.393093	1046.686234	1249.698102	-456.647655	1072.575815	1184.355553	-475.455179	947.206097	336.911473	-300.937093	
